<svg version="1.2" xmlns="http://www.w3.org/2000/svg" viewBox="0 0 685 164" width="685" height="164">
	<title>FutureTech (1)-ai-svg</title>
	<style>
		.s0 { fill: #000000 } 
		.s1 { fill: #ee3f37 } 
		.s2 { fill: #36b449 } 
		.s3 { fill: #29a8e0 } 
	</style>
	<g id="Layer 1">
		<g id="&lt;Group&gt;">
			<g id="&lt;Group&gt;">
				<path id="&lt;Path&gt;" class="s0" d="m15.6 63h58.8v14.8h-41.2v72.2h-17.6z"/>
				<path id="&lt;Path&gt;" class="s0" d="m44.3 115.1l-8-16.1h27.5v16.1z"/>
				<path id="&lt;Path&gt;" class="s0" d="m114.9 134.4l5.9 10.8v0.1q-6.4 5.7-16 5.7-15.2 0-21.5-8.2-5.8-7.3-5.8-23.3v-31.6h17v31.6q0 3.3 0.2 6.4 0.2 3.1 1.3 5.5 1.2 2.4 3.7 3.8 2.5 1.4 7.1 1.4 2.1 0 4.1-0.6 2-0.6 3.7-1.6z"/>
				<path id="&lt;Path&gt;" class="s0" d="m140.9 87.9v62.5h-17v-62.5z"/>
				<path id="&lt;Path&gt;" class="s0" d="m177.6 128.8q0 2.8 2 4.8 2.1 2 4.9 2h12.1v14.4h-12.1q-4.8 0-9.1-1.8-4.3-1.8-7.5-4.9-3.1-3.2-5-7.4-1.9-4.3-1.9-9.1v-18.6h-8.9v-13.8h8.9v-22.5h16.6z"/>
				<path id="&lt;Path&gt;" class="s0" d="m196.6 94.4v13.8h-9.2l-7.7-13.8z"/>
				<path id="&lt;Path&gt;" class="s0" d="m244.5 134.4l5.9 10.8v0.1q-6.4 5.7-16 5.7-15.1 0-21.5-8.2-5.8-7.3-5.8-23.3v-31.6h17v31.6q0 3.3 0.2 6.4 0.2 3.1 1.4 5.5 1.1 2.4 3.6 3.8 2.5 1.4 7.1 1.4 2.1 0 4.1-0.6 2-0.6 3.7-1.6z"/>
				<path id="&lt;Path&gt;" class="s0" d="m270.6 87.9v62.5h-17.1v-62.5z"/>
				<path id="&lt;Path&gt;" class="s0" d="m333.6 90.4l-1.5 2.5-6.3 11.3-0.1-0.1q-4.1-2.4-8.8-2.4-3.3 0-6.1 1.1-2.9 1-5.1 3-2.2 1.9-3.8 4.5-1.6 2.6-2 5.6v34.1h-16.9v-62.1h16.9v8.1q6.5-9 19.2-9.1 7.4 0 14.4 3.5z"/>
				<path id="&lt;Path&gt;" class="s0" d="m365.8 86.9q6.6 0 12.4 2.6 5.8 2.5 10.2 6.9 4.3 4.3 6.9 10.2 2.5 5.8 2.5 12.5 0 3.6-0.7 7l-0.2 0.2h-31.5l-7.9-12.7h23.6q-1.8-5.2-5.8-8.5-4.1-3.4-9.5-3.4-3.4 0-6.3 1.4-3 1.3-5.2 3.6-2.2 2.3-3.4 5.5-1.3 3.1-1.3 6.8 0 2.9 1.2 5.9 1.1 3.1 3.2 5.5 2.1 2.5 5.1 4.2 3 1.6 6.7 1.6 3.3 0 6.1-0.9 2.8-0.9 5.3-4.1l0.1-0.2 0.3 0.2 14.4 6.3-0.3 0.2q-4.4 6.3-11.3 9.8-6.9 3.5-14.6 3.5-6.7 0-12.6-2.5-5.9-2.4-10.3-6.8-4.3-4.3-6.9-10.2-2.5-5.8-2.5-12.4 0-6.7 2.5-12.5 2.6-5.9 6.9-10.2 4.4-4.4 10.3-6.9 5.9-2.6 12.6-2.6z"/>
				<path id="&lt;Path&gt;" class="s0" d="m443.1 63.1v86.9h-17.8v-71.7h-25.6v-15.2z"/>
				<path id="&lt;Path&gt;" class="s1" d="m445.7 63.1h23v15.2h-15.4z"/>
				<path id="&lt;Path&gt;" class="s0" d="m488.2 86.9q6.6 0 12.4 2.6 5.9 2.5 10.2 6.9 4.3 4.3 6.9 10.2 2.5 5.8 2.5 12.5 0 3.6-0.7 7l-0.1 0.2h-31.6l-7.9-12.7h23.6q-1.8-5.2-5.8-8.5-4-3.4-9.5-3.4-3.3 0-6.3 1.4-3 1.3-5.2 3.6-2.2 2.3-3.4 5.5-1.2 3.1-1.2 6.8 0 2.9 1.1 5.9 1.1 3.1 3.2 5.5 2.1 2.5 5.1 4.2 3 1.6 6.7 1.6 3.4 0 6.2-0.9 2.7-0.9 5.2-4.1l0.2-0.2 0.2 0.2 14.4 6.3-0.2 0.2q-4.5 6.3-11.4 9.8-6.9 3.5-14.6 3.5-6.7 0-12.6-2.5-5.9-2.4-10.2-6.8-4.4-4.3-6.9-10.2-2.6-5.8-2.6-12.4 0-6.7 2.6-12.5 2.5-5.9 6.9-10.2 4.3-4.4 10.2-6.9 5.9-2.6 12.6-2.6z"/>
				<path id="&lt;Path&gt;" class="s0" d="m576.7 126.3l13.4 8.8-0.1 0.1q-4.3 7.5-11.7 11.7-7.4 4.2-16 4.2-6.7 0-12.5-2.5-5.8-2.5-10.2-6.9-4.3-4.3-6.9-10.2-2.5-5.8-2.5-12.4 0-6.6 2.5-12.4 2.6-5.8 6.9-10.2 4.4-4.3 10.2-6.9 5.8-2.5 12.5-2.5 8.6 0 16 4.2 7.4 4.2 11.7 11.7l0.1 0.1-13.5 8.8-0.1-0.1q-2-4.6-5.8-7.5-3.8-2.8-8.4-2.8-3.3 0-6.2 1.4-3 1.4-5.1 3.9-2.1 2.4-3.3 5.5-1.3 3.2-1.3 6.8 0 3.6 1.3 6.7 1.2 3.1 3.3 5.4 2.1 2.3 5.1 3.6 2.9 1.3 6.2 1.3 4.6 0 8.4-2.5 3.8-2.6 5.8-7.2l0.1-0.2z"/>
				<path id="&lt;Path&gt;" class="s0" d="m601.4 63.1h16.6l-0.2 86.9h-16.5z"/>
				<path id="&lt;Path&gt;" class="s0" d="m658.3 95.4q5.6 7.4 5.6 23.6v31h-16.5v-30.9q0-3.4-0.2-6.5-0.2-3.1-1.3-5.4-1.1-2.4-3.6-3.7-2.5-1.4-7.1-1.4-3.6 0-7.8 2l-0.1 0.1-0.2-0.2-5.9-10.8 0.1-0.1q3.2-2.9 7.2-4.3 4-1.5 8.7-1.5 15 0 21.1 8.1z"/>
			</g>
			<path id="&lt;Path&gt;" class="s2" d="m491.4 78.3h-15.1v-15.2h15.1z"/>
			<path id="&lt;Path&gt;" class="s3" d="m513.6 78.3h-15.1v-15.2h15.1z"/>
		</g>
		<g id="&lt;Group&gt;">
			<path id="&lt;Compound Path&gt;" class="s3" d="m43.7 45.6h-8.2l-8.6-26.5h-0.1l-0.1 0.8q-0.8 5.2-1.6 9.2l-3.5 16.5h-6.5l7.4-35h8.5l8.2 25.8h0.1q0.2-1.8 0.9-5.2 0.6-3.4 4.3-20.6h6.6z"/>
			<path id="&lt;Compound Path&gt;" class="s3" d="m54 18.8h7.2l-3.3 15.7q-0.4 1.6-0.4 2.8 0 3 2.6 3 2.2 0 4-2.8 1.8-2.7 2.8-7.6l2.4-11.1h7.2l-5.7 26.8h-5.5l0.5-5h-0.1q-3.5 5.5-8.5 5.5-3.3 0-5.1-2-1.7-2-1.7-5.7 0-2.2 0.5-5.1z"/>
			<path id="&lt;Compound Path&gt;" fill-rule="evenodd" class="s3" d="m86.1 32.2l-2.9 13.4h-7.3l7.4-35h8.6q5.7 0 8.5 2.4 2.9 2.5 2.9 7.2 0 3.8-2 6.5-2 2.7-5.7 4l6.2 14.9h-7.9l-5-13.4zm1.3-6.1h1.9q3.1 0 4.8-1.3 1.8-1.4 1.8-4.2 0-2-1.1-3-1.2-0.9-3.6-0.9h-1.8z"/>
			<path id="&lt;Compound Path&gt;" fill-rule="evenodd" class="s3" d="m114.6 46.1q-5.1 0-7.8-2.7-2.8-2.7-2.8-7.7 0-4.9 2-9 1.9-4.1 5.3-6.2 3.4-2.2 7.6-2.2 4.3 0 6.7 2 2.3 1.9 2.3 5.3 0 4.5-4 6.9-4 2.5-11.4 2.5h-1.2l-0.1 0.5v0.4q0 2.2 1.3 3.5 1.2 1.2 3.5 1.2 2.1 0 3.8-0.4 1.7-0.5 4.1-1.6v5.4q-4.1 2.1-9.3 2.1zm3.9-22.6q-2.1 0-4 1.9-1.9 1.9-2.4 4.7h1.1q3.7 0 5.7-1.2 2.1-1.1 2.1-3.1 0-2.3-2.5-2.3z"/>
		</g>
	</g>
</svg>